<svg width="31" height="31" viewBox="0 0 31 31" fill="none" xmlns="http://www.w3.org/2000/svg">
<path d="M14.5833 0C22.6377 0 29.1667 6.52896 29.1667 14.5833C29.1667 14.9669 29.1521 15.346 29.1229 15.7208C28.4811 15.1129 27.7576 14.5976 26.9733 14.1896C26.9129 12.3143 26.4276 10.4772 25.5539 8.81679C24.6802 7.15636 23.4411 5.71592 21.9297 4.60405C20.4184 3.49218 18.6744 2.73789 16.8292 2.39804C14.984 2.05819 13.0857 2.14165 11.2775 2.64212C9.46919 3.1426 7.79812 4.04703 6.39022 5.28724C4.98232 6.52745 3.87432 8.07108 3.14975 9.80178C2.42517 11.5325 2.10293 13.4051 2.20731 15.2784C2.31168 17.1518 2.83995 18.977 3.7523 20.6165L3.97105 21.0102L2.34939 26.8202L8.16376 25.1985L8.55751 25.4173C10.283 26.3801 12.2146 26.9137 14.1896 26.9733C14.5994 27.7608 15.1171 28.4842 15.7208 29.1229C13.0152 29.3387 10.3033 28.7921 7.89251 27.545L2.31439 29.101C2.00309 29.1879 1.6743 29.1905 1.36169 29.1084C1.04909 29.0264 0.76391 28.8627 0.53538 28.6342C0.306851 28.4057 0.143186 28.1205 0.061156 27.8079C-0.0208744 27.4953 -0.0183212 27.1665 0.0685538 26.8552L1.62605 21.28C0.554692 19.2105 -0.003017 16.9137 1.22747e-05 14.5833C1.22747e-05 6.52896 6.52897 0 14.5833 0ZM30.625 22.6042C30.625 20.4769 29.78 18.4368 28.2758 16.9326C26.7716 15.4284 24.7314 14.5833 22.6042 14.5833C20.4769 14.5833 18.4368 15.4284 16.9326 16.9326C15.4284 18.4368 14.5833 20.4769 14.5833 22.6042C14.5833 24.7314 15.4284 26.7716 16.9326 28.2758C18.4368 29.78 20.4769 30.625 22.6042 30.625C24.7314 30.625 26.7716 29.78 28.2758 28.2758C29.78 26.7716 30.625 24.7314 30.625 22.6042ZM23.3333 23.3333L23.3348 26.9835C23.3348 27.1769 23.258 27.3624 23.1212 27.4991C22.9845 27.6359 22.799 27.7127 22.6056 27.7127C22.4123 27.7127 22.2268 27.6359 22.09 27.4991C21.9533 27.3624 21.8765 27.1769 21.8765 26.9835V23.3333H18.2233C18.03 23.3333 17.8445 23.2565 17.7077 23.1198C17.571 22.983 17.4942 22.7976 17.4942 22.6042C17.4942 22.4108 17.571 22.2253 17.7077 22.0886C17.8445 21.9518 18.03 21.875 18.2233 21.875H21.875V18.2292C21.875 18.0358 21.9518 17.8503 22.0886 17.7136C22.2253 17.5768 22.4108 17.5 22.6042 17.5C22.7976 17.5 22.983 17.5768 23.1198 17.7136C23.2565 17.8503 23.3333 18.0358 23.3333 18.2292V21.875H26.9748C27.1682 21.875 27.3537 21.9518 27.4904 22.0886C27.6271 22.2253 27.704 22.4108 27.704 22.6042C27.704 22.7976 27.6271 22.983 27.4904 23.1198C27.3537 23.2565 27.1682 23.3333 26.9748 23.3333H23.3333Z" fill="white"/>
</svg>
