<svg width="25" height="25" viewBox="0 0 25 25" fill="none" xmlns="http://www.w3.org/2000/svg">
<path d="M12.5007 12.4997C10.8965 12.4997 9.52322 11.9285 8.38086 10.7861C7.2385 9.64377 6.66732 8.27051 6.66732 6.66634C6.66732 5.06217 7.2385 3.68891 8.38086 2.54655C9.52322 1.40419 10.8965 0.833008 12.5007 0.833008C14.1048 0.833008 15.4781 1.40419 16.6204 2.54655C17.7628 3.68891 18.334 5.06217 18.334 6.66634C18.334 8.27051 17.7628 9.64377 16.6204 10.7861C15.4781 11.9285 14.1048 12.4997 12.5007 12.4997ZM0.833984 24.1663V20.083C0.833984 19.2566 1.0469 18.4968 1.47273 17.8036C1.89857 17.1104 2.46343 16.582 3.16732 16.2184C4.67426 15.465 6.20551 14.8996 7.76107 14.5224C9.31662 14.1452 10.8965 13.957 12.5007 13.958C14.1048 13.958 15.6847 14.1466 17.2402 14.5238C18.7958 14.9011 20.327 15.4659 21.834 16.2184C22.5388 16.583 23.1042 17.1119 23.53 17.8051C23.9559 18.4983 24.1683 19.2576 24.1673 20.083V24.1663H0.833984Z" fill="white"/>
</svg>
