<svg width="30" height="35" viewBox="0 0 30 35" fill="none" xmlns="http://www.w3.org/2000/svg">
<path d="M19.5637 21.1938C19.3496 21.1238 17.9967 20.514 18.8421 17.9442H18.83C21.0337 15.6746 22.7177 12.0225 22.7177 8.42692C22.7177 2.89827 19.0413 0 14.7687 0C10.4933 0 6.83712 2.89692 6.83712 8.42692C6.83712 12.0373 8.51173 15.7042 10.7288 17.9685C11.5931 20.2354 10.0477 21.0767 9.72462 21.1938C5.25 22.8133 0 25.7627 0 28.6744V29.7662C0 33.7333 7.69192 34.6352 14.8104 34.6352C21.9396 34.6352 29.5346 33.7333 29.5346 29.7662V28.6744C29.5346 25.6752 24.259 22.7487 19.5637 21.1938ZM12.1383 32.9175C12.1383 29.4862 14.3231 24.854 14.3231 24.854L12.8113 23.6681C12.8113 22.5346 14.7673 21.3487 14.7673 21.3487C14.7673 21.3487 16.7179 22.5535 16.7179 23.6681L15.2115 24.854C15.2115 24.854 17.3963 29.4687 17.3963 32.9552C17.3963 33.5017 12.1383 33.3752 12.1383 32.9175Z" fill="white"/>
</svg>
