<svg width="61" height="60" viewBox="0 0 61 60" fill="none" xmlns="http://www.w3.org/2000/svg">
<rect x="0.224609" y="0.323242" width="60" height="59.3548" rx="10" fill="#565E70"/>
<path fill-rule="evenodd" clip-rule="evenodd" d="M37.9198 30.8216C37.526 32.0624 37.7104 33.4634 38.64 34.3831L43.1345 38.8293C44.3061 39.9882 44.3061 41.8673 43.1345 43.0263C41.963 44.1853 40.0635 44.1853 38.8919 43.0263L34.9311 39.108C33.8905 38.0787 32.2628 37.9811 30.917 38.5699C26.2399 40.6162 20.5734 39.7434 16.7402 35.9515C11.7611 31.0258 11.7611 23.0398 16.7402 18.1142C21.7194 13.1885 29.7923 13.1885 34.7715 18.1142C38.2473 21.5526 39.2968 26.4825 37.9198 30.8216ZM31.1345 32.2791C34.0635 29.3817 34.0635 24.684 31.1345 21.7865C28.2056 18.8891 23.4569 18.8891 20.5279 21.7865C17.599 24.684 17.599 29.3817 20.5279 32.2791C23.4569 35.1765 28.2056 35.1765 31.1345 32.2791Z" fill="white"/>
<path d="M38.64 34.3831L38.9917 34.0276L38.64 34.3831ZM37.9198 30.8216L37.4432 30.6703L37.9198 30.8216ZM43.1345 38.8293L42.7829 39.1847L43.1345 38.8293ZM38.8919 43.0263L38.5403 43.3817L38.8919 43.0263ZM34.9311 39.108L35.2827 38.7526L34.9311 39.108ZM30.917 38.5699L31.1174 39.0279L30.917 38.5699ZM16.7402 35.9515L16.3886 36.307L16.7402 35.9515ZM16.7402 18.1142L17.0919 18.4696L16.7402 18.1142ZM34.7715 18.1142L34.4198 18.4696L34.7715 18.1142ZM31.1345 21.7865L31.4862 21.4311L31.1345 21.7865ZM31.1345 32.2791L31.4862 32.6346L31.1345 32.2791ZM20.5279 32.2791L20.1763 32.6346L20.5279 32.2791ZM38.9917 34.0276C38.2279 33.2721 38.0441 32.0828 38.3963 30.9728L37.4432 30.6703C37.0079 32.0421 37.1929 33.6548 38.2884 34.7385L38.9917 34.0276ZM43.4862 38.4738L38.9917 34.0276L38.2884 34.7385L42.7829 39.1847L43.4862 38.4738ZM43.4862 43.3817C44.8556 42.0271 44.8556 39.8285 43.4862 38.4738L42.7829 39.1847C43.7567 40.148 43.7567 41.7075 42.7829 42.6708L43.4862 43.3817ZM38.5403 43.3817C39.9067 44.7334 42.1198 44.7334 43.4862 43.3817L42.7829 42.6708C41.8061 43.6371 40.2203 43.6371 39.2435 42.6708L38.5403 43.3817ZM34.5794 39.4635L38.5403 43.3817L39.2435 42.6708L35.2827 38.7526L34.5794 39.4635ZM31.1174 39.0279C32.3311 38.4969 33.7233 38.6166 34.5794 39.4635L35.2827 38.7526C34.0578 37.5408 32.1945 37.4652 30.7166 38.1118L31.1174 39.0279ZM16.3886 36.307C20.3728 40.2483 26.2598 41.1532 31.1174 39.0279L30.7166 38.1118C26.22 40.0791 20.7739 39.2385 17.0919 35.596L16.3886 36.307ZM16.3886 17.7587C11.2116 22.88 11.2116 31.1856 16.3886 36.307L17.0919 35.596C12.3105 30.8661 12.3105 23.1996 17.0919 18.4696L16.3886 17.7587ZM35.1231 17.7587C29.9491 12.6403 21.5626 12.6403 16.3886 17.7587L17.0919 18.4696C21.8763 13.7367 29.6355 13.7367 34.4198 18.4696L35.1231 17.7587ZM38.3963 30.9728C39.8282 26.4609 38.7369 21.3337 35.1231 17.7587L34.4198 18.4696C37.7578 21.7716 38.7653 26.5042 37.4432 30.6703L38.3963 30.9728ZM30.7829 22.142C33.514 24.8438 33.514 29.2219 30.7829 31.9236L31.4862 32.6346C34.6129 29.5414 34.6129 24.5242 31.4862 21.4311L30.7829 22.142ZM20.8796 22.142C23.6137 19.4373 28.0488 19.4373 30.7829 22.142L31.4862 21.4311C28.3624 18.3409 23.3 18.3409 20.1763 21.4311L20.8796 22.142ZM20.8796 31.9236C18.1485 29.2219 18.1485 24.8438 20.8796 22.142L20.1763 21.4311C17.0496 24.5242 17.0496 29.5414 20.1763 32.6346L20.8796 31.9236ZM30.7829 31.9236C28.0488 34.6284 23.6137 34.6284 20.8796 31.9236L20.1763 32.6346C23.3 35.7247 28.3624 35.7247 31.4862 32.6346L30.7829 31.9236Z" fill="white"/>
</svg>
