<svg width="31" height="30" viewBox="0 0 31 30" fill="none" xmlns="http://www.w3.org/2000/svg">
<path d="M29.8799 13.4501L23.7139 18.8314L25.561 26.8431C25.6587 27.2619 25.6308 27.7003 25.4808 28.1033C25.3307 28.5064 25.0652 28.8563 24.7174 29.1093C24.3696 29.3622 23.9549 29.5071 23.5253 29.5257C23.0956 29.5443 22.67 29.4358 22.3016 29.2138L15.3139 24.9755L8.34124 29.2138C7.97288 29.4358 7.54725 29.5443 7.11757 29.5257C6.68789 29.5071 6.27322 29.3622 5.92541 29.1093C5.5776 28.8563 5.31208 28.5064 5.16205 28.1033C5.01201 27.7003 4.98412 27.2619 5.08187 26.8431L6.9262 18.8396L0.758819 13.4501C0.43262 13.1688 0.196744 12.7974 0.0807709 12.3825C-0.0352025 11.9677 -0.0261107 11.5278 0.106906 11.1181C0.239923 10.7084 0.490943 10.3471 0.828489 10.0795C1.16603 9.81186 1.57508 9.64986 2.00433 9.61379L10.1336 8.90969L13.3069 1.34094C13.4726 0.943792 13.7521 0.604554 14.1102 0.365939C14.4683 0.127324 14.889 0 15.3194 0C15.7497 0 16.1704 0.127324 16.5285 0.365939C16.8866 0.604554 17.1662 0.943792 17.3319 1.34094L20.5147 8.90969L28.6412 9.61379C29.0705 9.64986 29.4795 9.81186 29.8171 10.0795C30.1546 10.3471 30.4056 10.7084 30.5387 11.1181C30.6717 11.5278 30.6808 11.9677 30.5648 12.3825C30.4488 12.7974 30.2129 13.1688 29.8867 13.4501H29.8799Z" fill="white"/>
</svg>
