<svg width="35" height="35" viewBox="0 0 35 35" fill="none" xmlns="http://www.w3.org/2000/svg">
<path fill-rule="evenodd" clip-rule="evenodd" d="M21.1615 32.3747V3.93747C21.1615 2.66348 21.1583 1.83749 21.0834 1.23199C21.0118 0.663245 20.8962 0.484746 20.8034 0.384997C20.7106 0.285248 20.5445 0.160999 20.0155 0.0839995C19.4506 0.00350014 18.6838 0 17.4987 0C16.3136 0 15.5452 0.00350014 14.982 0.0839995C14.4529 0.160999 14.2869 0.285248 14.1941 0.384997C14.1013 0.484746 13.9857 0.663245 13.9141 1.23199C13.8392 1.83924 13.8359 2.66348 13.8359 3.93747V32.3747H21.1615Z" fill="white"/>
<path opacity="0.7" d="M11.3959 11.8125C11.3959 11.4644 11.2673 11.1306 11.0383 10.8844C10.8093 10.6383 10.4988 10.5 10.175 10.5H5.29124C4.96743 10.5 4.65688 10.6383 4.42791 10.8844C4.19895 11.1306 4.07031 11.4644 4.07031 11.8125V32.3748H11.3959V11.8125ZM30.9308 20.5624C30.9308 20.2143 30.8021 19.8805 30.5732 19.6344C30.3442 19.3882 30.0337 19.2499 29.7098 19.2499H24.8261C24.5023 19.2499 24.1918 19.3882 23.9628 19.6344C23.7338 19.8805 23.6052 20.2143 23.6052 20.5624V32.3748H30.9308V20.5624Z" fill="white"/>
<path opacity="0.5" d="M1.22093 32.375C0.897119 32.375 0.586571 32.5133 0.357602 32.7594C0.128633 33.0056 0 33.3394 0 33.6875C0 34.0356 0.128633 34.3694 0.357602 34.6156C0.586571 34.8617 0.897119 35 1.22093 35H33.7791C34.1029 35 34.4134 34.8617 34.6424 34.6156C34.8714 34.3694 35 34.0356 35 33.6875C35 33.3394 34.8714 33.0056 34.6424 32.7594C34.4134 32.5133 34.1029 32.375 33.7791 32.375H1.22093Z" fill="white"/>
</svg>
